# xmcd CD database file
#
# Track frame offsets:
#	150
#	12699
#	28999
#	43701
#	55026
#	70386
#	84736
#	100307
#	117442
#	134376
#	152227
#	169073
#	188492
#	207994
#	227760
#	249238
#
# Disc length: 3624 seconds
#
# Revision: 0
# Processed by: cddbd v1.5.1PL2 Copyright (c) Steve Scherf et al.
# Submitted via: CDex 1.51
#
DISCID=e00e2610
DTITLE=田原俊彦 - Myこれ!クション 田原俊彦ベスト
DYEAR=2004
DGENRE=JPop
TTITLE0=哀愁デイト(NEW YORK CITY NIGHTS)
TTITLE1=ハッとして!Good
TTITLE2=ブギ浮ぎI LOVE YOU
TTITLE3=キミに決定!
TTITLE4=悲しみ2ヤング
TTITLE5=君に薔薇薔薇と…いう感じ
TTITLE6=原宿キッス
TTITLE7=NINJIN娘
TTITLE8=It's BAD
TTITLE9=“さようなら”からはじめよう
TTITLE10=どうする？
TTITLE11=抱きしめてTONIGHT
TTITLE12=かっこつかないね
TTITLE13=ごめんよ涙
TTITLE14=ひとりぼっちにしないから
TTITLE15=雨が叫んでる-TELL BY YOUR EYES-
EXTD=YEAR: 2004
EXTT0=
EXTT1=
EXTT2=
EXTT3=
EXTT4=
EXTT5=
EXTT6=
EXTT7=
EXTT8=
EXTT9=
EXTT10=
EXTT11=
EXTT12=
EXTT13=
EXTT14=
EXTT15=
PLAYORDER=
